<svg xmlns="http://www.w3.org/2000/svg" xmlns:xlink="http://www.w3.org/1999/xlink" contentStyleType="text/css" data-diagram-type="DESCRIPTION" height="696px" preserveAspectRatio="none" style="width:1678px;height:696px;background:#FFFFFF;" version="1.1" viewBox="0 0 1678 696" width="1678px" zoomAndPan="magnify"><defs/><g><!--cluster Project Tracker--><g class="cluster" data-entity="Project Tracker" data-source-line="1" data-uid="ent0002" id="cluster_Project Tracker"><path d="M8.5,6 L130.3525,6 A3.75,3.75 0 0 1 132.8525,8.5 L139.8525,28.2969 L1668.5,28.2969 A2.5,2.5 0 0 1 1671,30.7969 L1671,687.28 A2.5,2.5 0 0 1 1668.5,689.78 L8.5,689.78 A2.5,2.5 0 0 1 6,687.28 L6,8.5 A2.5,2.5 0 0 1 8.5,6" fill="none" style="stroke:#000000;stroke-width:1.5;"/><line style="stroke:#000000;stroke-width:1.5;" x1="6" x2="139.8525" y1="28.2969" y2="28.2969"/><text fill="#000000" font-family="sans-serif" font-size="14" font-weight="bold" lengthAdjust="spacing" textLength="120.8525" x="10" y="20.9951">Project Tracker</text></g><!--cluster REST API--><g class="cluster" data-entity="REST API" data-source-line="5" data-uid="ent0004" id="cluster_REST API"><path d="M870.5,166.59 L942.6553,166.59 A3.75,3.75 0 0 1 945.1553,169.09 L952.1553,188.8869 L1625.5,188.8869 A2.5,2.5 0 0 1 1628,191.3869 L1628,261.39 A2.5,2.5 0 0 1 1625.5,263.89 L870.5,263.89 A2.5,2.5 0 0 1 868,261.39 L868,169.09 A2.5,2.5 0 0 1 870.5,166.59" fill="none" style="stroke:#000000;stroke-width:1.5;"/><line style="stroke:#000000;stroke-width:1.5;" x1="868" x2="952.1553" y1="188.8869" y2="188.8869"/><text fill="#000000" font-family="sans-serif" font-size="14" font-weight="bold" lengthAdjust="spacing" textLength="71.1553" x="872" y="181.5851">REST API</text></g><!--cluster Service Layer--><g class="cluster" data-entity="Service Layer" data-source-line="12" data-uid="ent0009" id="cluster_Service Layer"><path d="M325.5,296.89 L433.4688,296.89 A3.75,3.75 0 0 1 435.9688,299.39 L442.9688,319.1869 L1009.5,319.1869 A2.5,2.5 0 0 1 1012,321.6869 L1012,391.69 A2.5,2.5 0 0 1 1009.5,394.19 L325.5,394.19 A2.5,2.5 0 0 1 323,391.69 L323,299.39 A2.5,2.5 0 0 1 325.5,296.89" fill="none" style="stroke:#000000;stroke-width:1.5;"/><line style="stroke:#000000;stroke-width:1.5;" x1="323" x2="442.9688" y1="319.1869" y2="319.1869"/><text fill="#000000" font-family="sans-serif" font-size="14" font-weight="bold" lengthAdjust="spacing" textLength="106.9688" x="327" y="311.8851">Service Layer</text></g><!--cluster Repository Layer--><g class="cluster" data-entity="Repository Layer" data-source-line="19" data-uid="ent0014" id="cluster_Repository Layer"><path d="M32.5,443.19 L167.6553,443.19 A3.75,3.75 0 0 1 170.1553,445.69 L177.1553,465.4869 L990.5,465.4869 A2.5,2.5 0 0 1 993,467.9869 L993,537.98 A2.5,2.5 0 0 1 990.5,540.48 L32.5,540.48 A2.5,2.5 0 0 1 30,537.98 L30,445.69 A2.5,2.5 0 0 1 32.5,443.19" fill="none" style="stroke:#000000;stroke-width:1.5;"/><line style="stroke:#000000;stroke-width:1.5;" x1="30" x2="177.1553" y1="465.4869" y2="465.4869"/><text fill="#000000" font-family="sans-serif" font-size="14" font-weight="bold" lengthAdjust="spacing" textLength="134.1553" x="34" y="458.1851">Repository Layer</text></g><!--cluster Security Components--><g class="cluster" data-entity="Security Components" data-source-line="29" data-uid="ent0021" id="cluster_Security Components"><path d="M1019.5,443.19 L1189.3135,443.19 A3.75,3.75 0 0 1 1191.8135,445.69 L1198.8135,465.4869 L1644.5,465.4869 A2.5,2.5 0 0 1 1647,467.9869 L1647,663.28 A2.5,2.5 0 0 1 1644.5,665.78 L1019.5,665.78 A2.5,2.5 0 0 1 1017,663.28 L1017,445.69 A2.5,2.5 0 0 1 1019.5,443.19" fill="none" style="stroke:#000000;stroke-width:1.5;"/><line style="stroke:#000000;stroke-width:1.5;" x1="1017" x2="1198.8135" y1="465.4869" y2="465.4869"/><text fill="#000000" font-family="sans-serif" font-size="14" font-weight="bold" lengthAdjust="spacing" textLength="168.8135" x="1021" y="458.1851">Security Components</text></g><!--entity Client (Frontend)--><g class="entity" data-entity="Client .Frontend." data-source-line="3" data-uid="ent0003" id="entity_Client .Frontend."><rect fill="#F1F1F1" height="62.5938" rx="2.5" ry="2.5" style="stroke:#181818;stroke-width:0.5;" width="159.0137" x="1152.49" y="41"/><rect fill="#F1F1F1" height="10" style="stroke:#181818;stroke-width:0.5;" width="15" x="1291.5037" y="46"/><rect fill="#F1F1F1" height="2" style="stroke:#181818;stroke-width:0.5;" width="4" x="1289.5037" y="48"/><rect fill="#F1F1F1" height="2" style="stroke:#181818;stroke-width:0.5;" width="4" x="1289.5037" y="52"/><text fill="#000000" font-family="sans-serif" font-size="14" font-style="italic" lengthAdjust="spacing" textLength="31.5068" x="1211.2434" y="73.9951">&#171;UI&#187;</text><text fill="#000000" font-family="sans-serif" font-size="14" lengthAdjust="spacing" textLength="119.0137" x="1167.49" y="90.292">Client (Frontend)</text></g><!--entity DB--><g class="entity" data-entity="DB" data-source-line="27" data-uid="ent0020" id="entity_DB"><path d="M420.34,613.98 C420.34,603.98 490.0006,603.98 490.0006,603.98 C490.0006,603.98 559.6613,603.98 559.6613,613.98 L559.6613,639.2769 C559.6613,649.2769 490.0006,649.2769 490.0006,649.2769 C490.0006,649.2769 420.34,649.2769 420.34,639.2769 L420.34,613.98" fill="#F1F1F1" style="stroke:#181818;stroke-width:0.5;"/><path d="M420.34,613.98 C420.34,623.98 490.0006,623.98 490.0006,623.98 C490.0006,623.98 559.6613,623.98 559.6613,613.98" fill="none" style="stroke:#181818;stroke-width:0.5;"/><text fill="#000000" font-family="sans-serif" font-size="14" lengthAdjust="spacing" textLength="119.3213" x="430.34" y="640.9751">MySQL Database</text></g><!--entity AuthController--><g class="entity" data-entity="AuthController" data-source-line="6" data-uid="ent0005" id="entity_AuthController"><rect fill="#F1F1F1" height="46.2969" rx="2.5" ry="2.5" style="stroke:#181818;stroke-width:0.5;" width="141.9854" x="884.01" y="201.59"/><rect fill="#F1F1F1" height="10" style="stroke:#181818;stroke-width:0.5;" width="15" x="1005.9954" y="206.59"/><rect fill="#F1F1F1" height="2" style="stroke:#181818;stroke-width:0.5;" width="4" x="1003.9954" y="208.59"/><rect fill="#F1F1F1" height="2" style="stroke:#181818;stroke-width:0.5;" width="4" x="1003.9954" y="212.59"/><text fill="#000000" font-family="sans-serif" font-size="14" lengthAdjust="spacing" textLength="101.9854" x="899.01" y="234.5851">AuthController</text></g><!--entity ProjectController--><g class="entity" data-entity="ProjectController" data-source-line="7" data-uid="ent0006" id="entity_ProjectController"><rect fill="#F1F1F1" height="46.2969" rx="2.5" ry="2.5" style="stroke:#181818;stroke-width:0.5;" width="157.626" x="1061.19" y="201.59"/><rect fill="#F1F1F1" height="10" style="stroke:#181818;stroke-width:0.5;" width="15" x="1198.816" y="206.59"/><rect fill="#F1F1F1" height="2" style="stroke:#181818;stroke-width:0.5;" width="4" x="1196.816" y="208.59"/><rect fill="#F1F1F1" height="2" style="stroke:#181818;stroke-width:0.5;" width="4" x="1196.816" y="212.59"/><text fill="#000000" font-family="sans-serif" font-size="14" lengthAdjust="spacing" textLength="117.626" x="1076.19" y="234.5851">ProjectController</text></g><!--entity DeveloperController--><g class="entity" data-entity="DeveloperController" data-source-line="8" data-uid="ent0007" id="entity_DeveloperController"><rect fill="#F1F1F1" height="46.2969" rx="2.5" ry="2.5" style="stroke:#181818;stroke-width:0.5;" width="181.1758" x="1430.41" y="201.59"/><rect fill="#F1F1F1" height="10" style="stroke:#181818;stroke-width:0.5;" width="15" x="1591.5858" y="206.59"/><rect fill="#F1F1F1" height="2" style="stroke:#181818;stroke-width:0.5;" width="4" x="1589.5858" y="208.59"/><rect fill="#F1F1F1" height="2" style="stroke:#181818;stroke-width:0.5;" width="4" x="1589.5858" y="212.59"/><text fill="#000000" font-family="sans-serif" font-size="14" lengthAdjust="spacing" textLength="141.1758" x="1445.41" y="234.5851">DeveloperController</text></g><!--entity TaskController--><g class="entity" data-entity="TaskController" data-source-line="9" data-uid="ent0008" id="entity_TaskController"><rect fill="#F1F1F1" height="46.2969" rx="2.5" ry="2.5" style="stroke:#181818;stroke-width:0.5;" width="141.7051" x="1254.15" y="201.59"/><rect fill="#F1F1F1" height="10" style="stroke:#181818;stroke-width:0.5;" width="15" x="1375.8551" y="206.59"/><rect fill="#F1F1F1" height="2" style="stroke:#181818;stroke-width:0.5;" width="4" x="1373.8551" y="208.59"/><rect fill="#F1F1F1" height="2" style="stroke:#181818;stroke-width:0.5;" width="4" x="1373.8551" y="212.59"/><text fill="#000000" font-family="sans-serif" font-size="14" lengthAdjust="spacing" textLength="101.7051" x="1269.15" y="234.5851">TaskController</text></g><!--entity AuthService--><g class="entity" data-entity="AuthService" data-source-line="13" data-uid="ent0010" id="entity_AuthService"><rect fill="#F1F1F1" height="46.2969" rx="2.5" ry="2.5" style="stroke:#181818;stroke-width:0.5;" width="124.5537" x="338.72" y="331.89"/><rect fill="#F1F1F1" height="10" style="stroke:#181818;stroke-width:0.5;" width="15" x="443.2737" y="336.89"/><rect fill="#F1F1F1" height="2" style="stroke:#181818;stroke-width:0.5;" width="4" x="441.2737" y="338.89"/><rect fill="#F1F1F1" height="2" style="stroke:#181818;stroke-width:0.5;" width="4" x="441.2737" y="342.89"/><text fill="#000000" font-family="sans-serif" font-size="14" lengthAdjust="spacing" textLength="84.5537" x="353.72" y="364.8851">AuthService</text></g><!--entity ProjectService--><g class="entity" data-entity="ProjectService" data-source-line="14" data-uid="ent0011" id="entity_ProjectService"><rect fill="#F1F1F1" height="46.2969" rx="2.5" ry="2.5" style="stroke:#181818;stroke-width:0.5;" width="140.1943" x="497.9" y="331.89"/><rect fill="#F1F1F1" height="10" style="stroke:#181818;stroke-width:0.5;" width="15" x="618.0943" y="336.89"/><rect fill="#F1F1F1" height="2" style="stroke:#181818;stroke-width:0.5;" width="4" x="616.0943" y="338.89"/><rect fill="#F1F1F1" height="2" style="stroke:#181818;stroke-width:0.5;" width="4" x="616.0943" y="342.89"/><text fill="#000000" font-family="sans-serif" font-size="14" lengthAdjust="spacing" textLength="100.1943" x="512.9" y="364.8851">ProjectService</text></g><!--entity DeveloperService--><g class="entity" data-entity="DeveloperService" data-source-line="15" data-uid="ent0012" id="entity_DeveloperService"><rect fill="#F1F1F1" height="46.2969" rx="2.5" ry="2.5" style="stroke:#181818;stroke-width:0.5;" width="163.7441" x="832.13" y="331.89"/><rect fill="#F1F1F1" height="10" style="stroke:#181818;stroke-width:0.5;" width="15" x="975.8741" y="336.89"/><rect fill="#F1F1F1" height="2" style="stroke:#181818;stroke-width:0.5;" width="4" x="973.8741" y="338.89"/><rect fill="#F1F1F1" height="2" style="stroke:#181818;stroke-width:0.5;" width="4" x="973.8741" y="342.89"/><text fill="#000000" font-family="sans-serif" font-size="14" lengthAdjust="spacing" textLength="123.7441" x="847.13" y="364.8851">DeveloperService</text></g><!--entity TaskService--><g class="entity" data-entity="TaskService" data-source-line="16" data-uid="ent0013" id="entity_TaskService"><rect fill="#F1F1F1" height="46.2969" rx="2.5" ry="2.5" style="stroke:#181818;stroke-width:0.5;" width="124.2734" x="672.86" y="331.89"/><rect fill="#F1F1F1" height="10" style="stroke:#181818;stroke-width:0.5;" width="15" x="777.1334" y="336.89"/><rect fill="#F1F1F1" height="2" style="stroke:#181818;stroke-width:0.5;" width="4" x="775.1334" y="338.89"/><rect fill="#F1F1F1" height="2" style="stroke:#181818;stroke-width:0.5;" width="4" x="775.1334" y="342.89"/><text fill="#000000" font-family="sans-serif" font-size="14" lengthAdjust="spacing" textLength="84.2734" x="687.86" y="364.8851">TaskService</text></g><!--entity UserRepository--><g class="entity" data-entity="UserRepository" data-source-line="20" data-uid="ent0015" id="entity_UserRepository"><rect fill="#F1F1F1" height="46.2969" rx="2.5" ry="2.5" style="stroke:#181818;stroke-width:0.5;" width="146.9824" x="45.51" y="478.19"/><rect fill="#F1F1F1" height="10" style="stroke:#181818;stroke-width:0.5;" width="15" x="172.4924" y="483.19"/><rect fill="#F1F1F1" height="2" style="stroke:#181818;stroke-width:0.5;" width="4" x="170.4924" y="485.19"/><rect fill="#F1F1F1" height="2" style="stroke:#181818;stroke-width:0.5;" width="4" x="170.4924" y="489.19"/><text fill="#000000" font-family="sans-serif" font-size="14" lengthAdjust="spacing" textLength="106.9824" x="60.51" y="511.1851">UserRepository</text></g><!--entity ProjectRepository--><g class="entity" data-entity="ProjectRepository" data-source-line="21" data-uid="ent0016" id="entity_ProjectRepository"><rect fill="#F1F1F1" height="46.2969" rx="2.5" ry="2.5" style="stroke:#181818;stroke-width:0.5;" width="163.5254" x="408.24" y="478.19"/><rect fill="#F1F1F1" height="10" style="stroke:#181818;stroke-width:0.5;" width="15" x="551.7654" y="483.19"/><rect fill="#F1F1F1" height="2" style="stroke:#181818;stroke-width:0.5;" width="4" x="549.7654" y="485.19"/><rect fill="#F1F1F1" height="2" style="stroke:#181818;stroke-width:0.5;" width="4" x="549.7654" y="489.19"/><text fill="#000000" font-family="sans-serif" font-size="14" lengthAdjust="spacing" textLength="123.5254" x="423.24" y="511.1851">ProjectRepository</text></g><!--entity DeveloperRepository--><g class="entity" data-entity="DeveloperRepository" data-source-line="22" data-uid="ent0017" id="entity_DeveloperRepository"><rect fill="#F1F1F1" height="46.2969" rx="2.5" ry="2.5" style="stroke:#181818;stroke-width:0.5;" width="187.0752" x="789.46" y="478.19"/><rect fill="#F1F1F1" height="10" style="stroke:#181818;stroke-width:0.5;" width="15" x="956.5352" y="483.19"/><rect fill="#F1F1F1" height="2" style="stroke:#181818;stroke-width:0.5;" width="4" x="954.5352" y="485.19"/><rect fill="#F1F1F1" height="2" style="stroke:#181818;stroke-width:0.5;" width="4" x="954.5352" y="489.19"/><text fill="#000000" font-family="sans-serif" font-size="14" lengthAdjust="spacing" textLength="147.0752" x="804.46" y="511.1851">DeveloperRepository</text></g><!--entity TaskRepository--><g class="entity" data-entity="TaskRepository" data-source-line="23" data-uid="ent0018" id="entity_TaskRepository"><rect fill="#F1F1F1" height="46.2969" rx="2.5" ry="2.5" style="stroke:#181818;stroke-width:0.5;" width="147.6045" x="607.2" y="478.19"/><rect fill="#F1F1F1" height="10" style="stroke:#181818;stroke-width:0.5;" width="15" x="734.8045" y="483.19"/><rect fill="#F1F1F1" height="2" style="stroke:#181818;stroke-width:0.5;" width="4" x="732.8045" y="485.19"/><rect fill="#F1F1F1" height="2" style="stroke:#181818;stroke-width:0.5;" width="4" x="732.8045" y="489.19"/><text fill="#000000" font-family="sans-serif" font-size="14" lengthAdjust="spacing" textLength="107.6045" x="622.2" y="511.1851">TaskRepository</text></g><!--entity RoleRepository--><g class="entity" data-entity="RoleRepository" data-source-line="24" data-uid="ent0019" id="entity_RoleRepository"><rect fill="#F1F1F1" height="46.2969" rx="2.5" ry="2.5" style="stroke:#181818;stroke-width:0.5;" width="145.8682" x="227.07" y="478.19"/><rect fill="#F1F1F1" height="10" style="stroke:#181818;stroke-width:0.5;" width="15" x="352.9382" y="483.19"/><rect fill="#F1F1F1" height="2" style="stroke:#181818;stroke-width:0.5;" width="4" x="350.9382" y="485.19"/><rect fill="#F1F1F1" height="2" style="stroke:#181818;stroke-width:0.5;" width="4" x="350.9382" y="489.19"/><text fill="#000000" font-family="sans-serif" font-size="14" lengthAdjust="spacing" textLength="105.8682" x="242.07" y="511.1851">RoleRepository</text></g><!--entity AuthenticationManager--><g class="entity" data-entity="AuthenticationManager" data-source-line="30" data-uid="ent0022" id="entity_AuthenticationManager"><rect fill="#F1F1F1" height="46.2969" rx="2.5" ry="2.5" style="stroke:#181818;stroke-width:0.5;" width="204.1377" x="1195.93" y="478.19"/><rect fill="#F1F1F1" height="10" style="stroke:#181818;stroke-width:0.5;" width="15" x="1380.0677" y="483.19"/><rect fill="#F1F1F1" height="2" style="stroke:#181818;stroke-width:0.5;" width="4" x="1378.0677" y="485.19"/><rect fill="#F1F1F1" height="2" style="stroke:#181818;stroke-width:0.5;" width="4" x="1378.0677" y="489.19"/><text fill="#000000" font-family="sans-serif" font-size="14" lengthAdjust="spacing" textLength="164.1377" x="1210.93" y="511.1851">AuthenticationManager</text></g><!--entity AuthorizationManager--><g class="entity" data-entity="AuthorizationManager" data-source-line="31" data-uid="ent0023" id="entity_AuthorizationManager"><rect fill="#F1F1F1" height="46.2969" rx="2.5" ry="2.5" style="stroke:#181818;stroke-width:0.5;" width="195.1348" x="1435.43" y="478.19"/><rect fill="#F1F1F1" height="10" style="stroke:#181818;stroke-width:0.5;" width="15" x="1610.5648" y="483.19"/><rect fill="#F1F1F1" height="2" style="stroke:#181818;stroke-width:0.5;" width="4" x="1608.5648" y="485.19"/><rect fill="#F1F1F1" height="2" style="stroke:#181818;stroke-width:0.5;" width="4" x="1608.5648" y="489.19"/><text fill="#000000" font-family="sans-serif" font-size="14" lengthAdjust="spacing" textLength="155.1348" x="1450.43" y="511.1851">AuthorizationManager</text></g><!--entity JwtTokenUtil--><g class="entity" data-entity="JwtTokenUtil" data-source-line="32" data-uid="ent0024" id="entity_JwtTokenUtil"><rect fill="#F1F1F1" height="46.2969" rx="2.5" ry="2.5" style="stroke:#181818;stroke-width:0.5;" width="127.2949" x="1033.35" y="478.19"/><rect fill="#F1F1F1" height="10" style="stroke:#181818;stroke-width:0.5;" width="15" x="1140.6449" y="483.19"/><rect fill="#F1F1F1" height="2" style="stroke:#181818;stroke-width:0.5;" width="4" x="1138.6449" y="485.19"/><rect fill="#F1F1F1" height="2" style="stroke:#181818;stroke-width:0.5;" width="4" x="1138.6449" y="489.19"/><text fill="#000000" font-family="sans-serif" font-size="14" lengthAdjust="spacing" textLength="87.2949" x="1048.35" y="511.1851">JwtTokenUtil</text></g><!--entity MethodSecurity--><g class="entity" data-entity="MethodSecurity" data-source-line="33" data-uid="ent0025" id="entity_MethodSecurity"><rect fill="#F1F1F1" height="46.2969" rx="2.5" ry="2.5" style="stroke:#181818;stroke-width:0.5;" width="149.9971" x="1398" y="603.48"/><rect fill="#F1F1F1" height="10" style="stroke:#181818;stroke-width:0.5;" width="15" x="1527.9971" y="608.48"/><rect fill="#F1F1F1" height="2" style="stroke:#181818;stroke-width:0.5;" width="4" x="1525.9971" y="610.48"/><rect fill="#F1F1F1" height="2" style="stroke:#181818;stroke-width:0.5;" width="4" x="1525.9971" y="614.48"/><text fill="#000000" font-family="sans-serif" font-size="14" lengthAdjust="spacing" textLength="109.9971" x="1413" y="636.4751">MethodSecurity</text></g><!--link Client (Frontend) to AuthController--><g class="link" data-entity-1="Client .Frontend." data-entity-2="AuthController" data-source-line="37" data-uid="lnk26" id="link_Client .Frontend._AuthController"><path d="M1154.74,104.08 C1120.05,118.97 1079.12,138.07 1044,158.59 C1022.34,171.25 1004.2781,184.316 987.1781,197.676" fill="none" id="Client (Frontend)-to-AuthController" style="stroke:#181818;stroke-width:1;"/><polygon fill="#181818" points="982.45,201.37,992.0047,198.9811,986.3901,198.2917,987.0794,192.677,982.45,201.37" style="stroke:#181818;stroke-width:1;"/><text fill="#000000" font-family="sans-serif" font-size="13" lengthAdjust="spacing" textLength="68.6118" x="1089" y="146.6569">REST Calls</text></g><!--link Client (Frontend) to ProjectController--><g class="link" data-entity-1="Client .Frontend." data-entity-2="ProjectController" data-source-line="38" data-uid="lnk27" id="link_Client .Frontend._ProjectController"><path d="M1211.91,103.81 C1205.75,113.3 1199.02,123.83 1193,133.59 C1178.89,156.46 1166.3773,177.8223 1155.8073,196.1523" fill="none" id="Client (Frontend)-to-ProjectController" style="stroke:#181818;stroke-width:1;"/><polygon fill="#181818" points="1152.81,201.35,1160.7711,195.5516,1155.3077,197.0186,1153.8408,191.5552,1152.81,201.35" style="stroke:#181818;stroke-width:1;"/><text fill="#000000" font-family="sans-serif" font-size="13" lengthAdjust="spacing" textLength="68.6118" x="1194" y="146.6569">REST Calls</text></g><!--link Client (Frontend) to DeveloperController--><g class="link" data-entity-1="Client .Frontend." data-entity-2="DeveloperController" data-source-line="39" data-uid="lnk28" id="link_Client .Frontend._DeveloperController"><path d="M1301.58,104.06 C1335.58,119.61 1376.86,139.24 1413,158.59 C1437.9,171.93 1460.0391,185.1846 1480.9291,198.2146" fill="none" id="Client (Frontend)-to-DeveloperController" style="stroke:#181818;stroke-width:1;"/><polygon fill="#181818" points="1486.02,201.39,1480.5006,193.233,1481.7776,198.7438,1476.2668,200.0208,1486.02,201.39" style="stroke:#181818;stroke-width:1;"/><text fill="#000000" font-family="sans-serif" font-size="13" lengthAdjust="spacing" textLength="68.6118" x="1394" y="146.6569">REST Calls</text></g><!--link Client (Frontend) to TaskController--><g class="link" data-entity-1="Client .Frontend." data-entity-2="TaskController" data-source-line="40" data-uid="lnk29" id="link_Client .Frontend._TaskController"><path d="M1250.82,103.74 C1268.65,132.59 1291.8764,170.1456 1307.8964,196.0756" fill="none" id="Client (Frontend)-to-TaskController" style="stroke:#181818;stroke-width:1;"/><polygon fill="#181818" points="1311.05,201.18,1309.7226,191.421,1308.422,196.9263,1302.9167,195.6258,1311.05,201.18" style="stroke:#181818;stroke-width:1;"/><text fill="#000000" font-family="sans-serif" font-size="13" lengthAdjust="spacing" textLength="68.6118" x="1279" y="146.6569">REST Calls</text></g><!--link AuthController to AuthService--><g class="link" data-entity-1="AuthController" data-entity-2="AuthService" data-source-line="42" data-uid="lnk30" id="link_AuthController_AuthService"><path d="M883.79,230.39 C769.54,238.65 550.93,257.99 480,288.89 C457.51,298.69 440.5656,312.6204 425.8056,327.2904" fill="none" id="AuthController-to-AuthService" style="stroke:#181818;stroke-width:1;"/><polygon fill="#181818" points="421.55,331.52,430.7532,328.0126,425.0963,327.9953,425.1136,322.3385,421.55,331.52" style="stroke:#181818;stroke-width:1;"/></g><!--link ProjectController to ProjectService--><g class="link" data-entity-1="ProjectController" data-entity-2="ProjectService" data-source-line="43" data-uid="lnk31" id="link_ProjectController_ProjectService"><path d="M1101.69,248.33 C1084.37,257.38 1063.27,266.84 1043,271.89 C959.25,292.73 736.27,259.84 655,288.89 C630.12,297.78 610.8517,312.3635 594.4917,327.4435" fill="none" id="ProjectController-to-ProjectService" style="stroke:#181818;stroke-width:1;"/><polygon fill="#181818" points="590.08,331.51,599.4086,328.3513,593.7564,328.1212,593.9865,322.469,590.08,331.51" style="stroke:#181818;stroke-width:1;"/></g><!--link DeveloperController to DeveloperService--><g class="link" data-entity-1="DeveloperController" data-entity-2="DeveloperService" data-source-line="44" data-uid="lnk32" id="link_DeveloperController_DeveloperService"><path d="M1478.06,248.29 C1458.72,257.34 1435.26,266.8 1413,271.89 C1372.34,281.18 1078.26,277.98 1038,288.89 C1005.14,297.79 976.2149,313.2551 952.1549,328.3251" fill="none" id="DeveloperController-to-DeveloperService" style="stroke:#181818;stroke-width:1;"/><polygon fill="#181818" points="947.07,331.51,956.8206,330.1225,951.3074,328.8559,952.5741,323.3427,947.07,331.51" style="stroke:#181818;stroke-width:1;"/></g><!--link TaskController to TaskService--><g class="link" data-entity-1="TaskController" data-entity-2="TaskService" data-source-line="45" data-uid="lnk33" id="link_TaskController_TaskService"><path d="M1290.08,248.37 C1274.23,257.43 1254.84,266.89 1236,271.89 C1145.5,295.9 902.57,255.74 815,288.89 C791.55,297.77 774.0328,312.1477 759.1628,327.2277" fill="none" id="TaskController-to-TaskService" style="stroke:#181818;stroke-width:1;"/><polygon fill="#181818" points="754.95,331.5,764.1174,327.9001,758.4607,327.9398,758.421,322.283,754.95,331.5" style="stroke:#181818;stroke-width:1;"/></g><!--link AuthService to UserRepository--><g class="link" data-entity-1="AuthService" data-entity-2="UserRepository" data-source-line="47" data-uid="lnk34" id="link_AuthService_UserRepository"><path d="M338.26,377.89 C300.16,392.16 251.1,412.35 210,435.19 C187.75,447.55 169.1948,460.6606 151.7448,474.0906" fill="none" id="AuthService-to-UserRepository" style="stroke:#181818;stroke-width:1;"/><polygon fill="#181818" points="146.99,477.75,156.5619,475.4307,150.9524,474.7005,151.6826,469.0909,146.99,477.75" style="stroke:#181818;stroke-width:1;"/></g><!--link AuthService to RoleRepository--><g class="link" data-entity-1="AuthService" data-entity-2="RoleRepository" data-source-line="48" data-uid="lnk35" id="link_AuthService_RoleRepository"><path d="M385.22,378.58 C366.24,405.69 338.041,445.9948 319.111,473.0348" fill="none" id="AuthService-to-RoleRepository" style="stroke:#181818;stroke-width:1;"/><polygon fill="#181818" points="315.67,477.95,324.1083,472.8712,318.5375,473.854,317.5547,468.2832,315.67,477.95" style="stroke:#181818;stroke-width:1;"/></g><!--link ProjectService to ProjectRepository--><g class="link" data-entity-1="ProjectService" data-entity-2="ProjectRepository" data-source-line="50" data-uid="lnk36" id="link_ProjectService_ProjectRepository"><path d="M566.18,378.46 C564.31,392.96 560.56,411.91 553,427.19 C543.56,446.26 532.1988,460.1536 518.8988,473.6036" fill="none" id="ProjectService-to-ProjectRepository" style="stroke:#181818;stroke-width:1;"/><polygon fill="#181818" points="514.68,477.87,523.8524,474.283,518.1957,474.3147,518.1639,468.6579,514.68,477.87" style="stroke:#181818;stroke-width:1;"/></g><!--link DeveloperService to DeveloperRepository--><g class="link" data-entity-1="DeveloperService" data-entity-2="DeveloperRepository" data-source-line="51" data-uid="lnk37" id="link_DeveloperService_DeveloperRepository"><path d="M909.16,378.58 C903.33,405.69 894.8804,445.0439 889.0704,472.0839" fill="none" id="DeveloperService-to-DeveloperRepository" style="stroke:#181818;stroke-width:1;"/><polygon fill="#181818" points="887.81,477.95,893.6114,469.9911,888.8604,473.0616,885.7899,468.3105,887.81,477.95" style="stroke:#181818;stroke-width:1;"/></g><!--link TaskService to TaskRepository--><g class="link" data-entity-1="TaskService" data-entity-2="TaskRepository" data-source-line="52" data-uid="lnk38" id="link_TaskService_TaskRepository"><path d="M726.56,378.58 C716.42,405.69 701.6031,445.2907 691.4831,472.3307" fill="none" id="TaskService-to-TaskRepository" style="stroke:#181818;stroke-width:1;"/><polygon fill="#181818" points="689.38,477.95,696.2809,470.9231,691.1326,473.2672,688.7884,468.1189,689.38,477.95" style="stroke:#181818;stroke-width:1;"/></g><!--link UserRepository to DB--><g class="link" data-entity-1="UserRepository" data-entity-2="DB" data-source-line="54" data-uid="lnk39" id="link_UserRepository_DB"><path d="M158.98,524.79 C174.58,532.97 192.82,541.84 210,548.48 C279.72,575.45 356.7473,595.6952 414.1573,609.1052" fill="none" id="UserRepository-to-DB" style="stroke:#181818;stroke-width:1;"/><polygon fill="#181818" points="420,610.47,412.1458,604.5277,415.1311,609.3327,410.3261,612.318,420,610.47" style="stroke:#181818;stroke-width:1;"/></g><!--link ProjectRepository to DB--><g class="link" data-entity-1="ProjectRepository" data-entity-2="DB" data-source-line="55" data-uid="lnk40" id="link_ProjectRepository_DB"><path d="M490,524.95 C490,547.34 490,575.39 490,597.58" fill="none" id="ProjectRepository-to-DB" style="stroke:#181818;stroke-width:1;"/><polygon fill="#181818" points="490,603.58,494,594.58,490,598.58,486,594.58,490,603.58" style="stroke:#181818;stroke-width:1;"/></g><!--link DeveloperRepository to DB--><g class="link" data-entity-1="DeveloperRepository" data-entity-2="DB" data-source-line="56" data-uid="lnk41" id="link_DeveloperRepository_DB"><path d="M832.4,524.96 C813.63,532.93 792.04,541.61 772,548.48 C700.83,572.9 623.3351,593.4719 565.8151,607.6719" fill="none" id="DeveloperRepository-to-DB" style="stroke:#181818;stroke-width:1;"/><polygon fill="#181818" points="559.99,609.11,569.6864,610.8363,564.8443,607.9116,567.769,603.0695,559.99,609.11" style="stroke:#181818;stroke-width:1;"/></g><!--link TaskRepository to DB--><g class="link" data-entity-1="TaskRepository" data-entity-2="DB" data-source-line="57" data-uid="lnk42" id="link_TaskRepository_DB"><path d="M645.97,524.95 C611.29,547.34 563.5807,578.1356 529.2107,600.3256" fill="none" id="TaskRepository-to-DB" style="stroke:#181818;stroke-width:1;"/><polygon fill="#181818" points="524.17,603.58,533.9007,602.0589,528.3706,600.868,529.5615,595.3379,524.17,603.58" style="stroke:#181818;stroke-width:1;"/></g><!--link RoleRepository to DB--><g class="link" data-entity-1="RoleRepository" data-entity-2="DB" data-source-line="58" data-uid="lnk43" id="link_RoleRepository_DB"><path d="M334.85,524.95 C369.35,547.34 416.7871,578.1235 450.9771,600.3135" fill="none" id="RoleRepository-to-DB" style="stroke:#181818;stroke-width:1;"/><polygon fill="#181818" points="456.01,603.58,450.6383,595.325,451.8159,600.8579,446.283,602.0356,456.01,603.58" style="stroke:#181818;stroke-width:1;"/></g><!--link AuthController to AuthenticationManager--><g class="link" data-entity-1="AuthController" data-entity-2="AuthenticationManager" data-source-line="60" data-uid="lnk44" id="link_AuthController_AuthenticationManager"><path d="M975.28,248.21 C1017.89,295.4 1112.97,400.62 1115,402.19 C1140,421.53 1150.11,420.31 1178,435.19 C1204.25,449.19 1228.3321,462.2478 1251.4421,474.8478" fill="none" id="AuthController-to-AuthenticationManager" style="stroke:#181818;stroke-width:1;stroke-dasharray:7.0,7.0;"/><polygon fill="#181818" points="1256.71,477.72,1250.7229,469.8998,1252.3201,475.3265,1246.8934,476.9237,1256.71,477.72" style="stroke:#181818;stroke-width:1;"/><text fill="#000000" font-family="sans-serif" font-size="13" lengthAdjust="spacing" textLength="115.1846" x="1116" y="359.6069">authenticate user</text></g><!--link AuthService to JwtTokenUtil--><g class="link" data-entity-1="AuthService" data-entity-2="JwtTokenUtil" data-source-line="61" data-uid="lnk45" id="link_AuthService_JwtTokenUtil"><path d="M431.72,378.48 C445.74,387.51 462.99,396.99 480,402.19 C534.63,418.87 938.64,417.66 993,435.19 C1021.39,444.34 1045.0343,459.3642 1064.9843,474.3642" fill="none" id="AuthService-to-JwtTokenUtil" style="stroke:#181818;stroke-width:1;stroke-dasharray:7.0,7.0;"/><polygon fill="#181818" points="1069.78,477.97,1064.9903,469.3642,1065.7836,474.9652,1060.1827,475.7585,1069.78,477.97" style="stroke:#181818;stroke-width:1;"/><text fill="#000000" font-family="sans-serif" font-size="13" lengthAdjust="spacing" textLength="126.8896" x="925" y="423.2569">create/validate JWT</text></g><!--link ProjectController to AuthorizationManager--><g class="link" data-entity-1="ProjectController" data-entity-2="AuthorizationManager" data-source-line="62" data-uid="lnk46" id="link_ProjectController_AuthorizationManager"><path d="M1186.9,248.17 C1204.34,258.49 1223.03,272.19 1236,288.89 C1268.66,330.95 1235.42,366.55 1275,402.19 C1323.47,445.83 1357.21,411.53 1418,435.19 C1446.87,446.42 1472.1932,460.7222 1494.4832,474.7622" fill="none" id="ProjectController-to-AuthorizationManager" style="stroke:#181818;stroke-width:1;stroke-dasharray:7.0,7.0;"/><polygon fill="#181818" points="1499.56,477.96,1494.0766,469.7788,1495.3293,475.2952,1489.8129,476.5479,1499.56,477.96" style="stroke:#181818;stroke-width:1;"/><text fill="#000000" font-family="sans-serif" font-size="13" lengthAdjust="spacing" textLength="176.084" x="1276" y="359.6069">method-level authorization</text></g><!--link DeveloperController to AuthorizationManager--><g class="link" data-entity-1="DeveloperController" data-entity-2="AuthorizationManager" data-source-line="63" data-uid="lnk47" id="link_DeveloperController_AuthorizationManager"><path d="M1521.98,248.21 C1524.24,299.83 1529.5084,420.3957 1531.7584,471.9457" fill="none" id="DeveloperController-to-AuthorizationManager" style="stroke:#181818;stroke-width:1;stroke-dasharray:7.0,7.0;"/><polygon fill="#181818" points="1532.02,477.94,1535.6237,468.7741,1531.802,472.9448,1527.6314,469.123,1532.02,477.94" style="stroke:#181818;stroke-width:1;"/></g><!--link TaskController to AuthorizationManager--><g class="link" data-entity-1="TaskController" data-entity-2="AuthorizationManager" data-source-line="64" data-uid="lnk48" id="link_TaskController_AuthorizationManager"><path d="M1365.15,248.34 C1379.97,256.26 1397.03,264.92 1413,271.89 C1433.74,280.95 1445.09,272.79 1461,288.89 C1488.19,316.41 1515.3733,423.6054 1526.6433,472.1554" fill="none" id="TaskController-to-AuthorizationManager" style="stroke:#181818;stroke-width:1;stroke-dasharray:7.0,7.0;"/><polygon fill="#181818" points="1528,478,1529.8613,468.3286,1526.8694,473.1295,1522.0685,470.1376,1528,478" style="stroke:#181818;stroke-width:1;"/></g><!--link AuthorizationManager to MethodSecurity--><g class="link" data-entity-1="AuthorizationManager" data-entity-2="MethodSecurity" data-source-line="66" data-uid="lnk49" id="link_AuthorizationManager_MethodSecurity"><path d="M1522,524.95 C1511.17,547.2 1497.3648,575.5646 1486.5648,597.7646" fill="none" id="AuthorizationManager-to-MethodSecurity" style="stroke:#181818;stroke-width:1;stroke-dasharray:7.0,7.0;"/><polygon fill="#181818" points="1483.94,603.16,1491.4741,596.8167,1486.1273,598.6638,1484.2803,593.317,1483.94,603.16" style="stroke:#181818;stroke-width:1;"/><text fill="#000000" font-family="sans-serif" font-size="13" lengthAdjust="spacing" textLength="156.5459" x="1507" y="569.5469">enforces @PreAuthorize</text></g><!--SRC=[ZLHDJm8n4BtlhvXmKG_WtH0YWYOGI12MU20SwZ9AfMmtRS6WuR_RNTYbNslWnhnvVM_QDvkHP4C-4HeJmRymKH0BNK7HWDye0bZq6CLKmUsBuAd2T7MtX7PxFkXqSZGhoTFdMGpToI1dWVujkZkrxcc6u8oXM9wAPmcltiSzCfwXy92Oo8rTF5gwCnHxcY2CoE5akH8_8xQoNQnaxNAkQLHimIbcN5B5nS7Hd4iK5z2MzUgLieVaubvnoXdQnSBKYYZoJgHsDJxCNaVGF_zl097GVt8kAja9gWxGuzkCf_f9fNLTka0JeYXFnoJLZF81SemB-XE0XjygvXjCvugoSscCkdjLQbL6Rs2Ah3X1hcacQsBLR7QytC035D7g4SR-vVdHkfeQIj_LP2UWDY_o5-4ofH6na7jpAhCrwDQUmsnt_LMcgwR8MPXJYn_dG9ERoyZVD6iEvq3Fi3E7qswwlipXwZl6YqQz2y5bDC2Gg04xIWRYt469X9w-rUhKBPlE3Ra023izXNVd1T_QEarB16h2_PumkigPmxUu9b6LlBVF-fXjiRbDbbz3OQLggWrT_NcXuFtJ7TLzPquavwEYpMBwmKM24Xud0aicHiS_]--></g></svg>