<svg xmlns="http://www.w3.org/2000/svg" xmlns:xlink="http://www.w3.org/1999/xlink" contentStyleType="text/css" data-diagram-type="DESCRIPTION" height="711px" preserveAspectRatio="none" style="width:826px;height:711px;background:#FFFFFF;" version="1.1" viewBox="0 0 826 711" width="826px" zoomAndPan="magnify"><title>Project Tracker - Component Diagram</title><defs/><g><text fill="#000000" font-family="sans-serif" font-size="14" font-weight="bold" lengthAdjust="spacing" textLength="298.3545" x="256.8228" y="22.9951">Project Tracker - Component Diagram</text><!--cluster Web Layer--><g class="cluster" data-entity="Web Layer" data-source-line="5" data-uid="ent0003" id="cluster_Web Layer"><path d="M260.5,143.7969 L345.2266,143.7969 A3.75,3.75 0 0 1 347.7266,146.2969 L354.7266,166.0938 L441.5,166.0938 A2.5,2.5 0 0 1 444,168.5938 L444,238.2969 A2.5,2.5 0 0 1 441.5,240.7969 L260.5,240.7969 A2.5,2.5 0 0 1 258,238.2969 L258,146.2969 A2.5,2.5 0 0 1 260.5,143.7969" fill="none" style="stroke:#000000;stroke-width:1.5;"/><line style="stroke:#000000;stroke-width:1.5;" x1="258" x2="354.7266" y1="166.0938" y2="166.0938"/><text fill="#000000" font-family="sans-serif" font-size="14" font-weight="bold" lengthAdjust="spacing" textLength="83.7266" x="262" y="158.792">Web Layer</text></g><!--cluster Service Layer--><g class="cluster" data-entity="Service Layer" data-source-line="9" data-uid="ent0005" id="cluster_Service Layer"><path d="M108.5,264.7969 L216.4688,264.7969 A3.75,3.75 0 0 1 218.9688,267.2969 L225.9688,287.0938 L633.5,287.0938 A2.5,2.5 0 0 1 636,289.5938 L636,465.2969 A2.5,2.5 0 0 1 633.5,467.7969 L108.5,467.7969 A2.5,2.5 0 0 1 106,465.2969 L106,267.2969 A2.5,2.5 0 0 1 108.5,264.7969" fill="none" style="stroke:#000000;stroke-width:1.5;"/><line style="stroke:#000000;stroke-width:1.5;" x1="106" x2="225.9688" y1="287.0938" y2="287.0938"/><text fill="#000000" font-family="sans-serif" font-size="14" font-weight="bold" lengthAdjust="spacing" textLength="106.9688" x="110" y="279.792">Service Layer</text></g><!--cluster Repository Layer--><g class="cluster" data-entity="Repository Layer" data-source-line="16" data-uid="ent0010" id="cluster_Repository Layer"><path d="M8.5,491.7969 L143.6553,491.7969 A3.75,3.75 0 0 1 146.1553,494.2969 L153.1553,514.0938 L816.5,514.0938 A2.5,2.5 0 0 1 819,516.5938 L819,586.2969 A2.5,2.5 0 0 1 816.5,588.7969 L8.5,588.7969 A2.5,2.5 0 0 1 6,586.2969 L6,494.2969 A2.5,2.5 0 0 1 8.5,491.7969" fill="none" style="stroke:#000000;stroke-width:1.5;"/><line style="stroke:#000000;stroke-width:1.5;" x1="6" x2="153.1553" y1="514.0938" y2="514.0938"/><text fill="#000000" font-family="sans-serif" font-size="14" font-weight="bold" lengthAdjust="spacing" textLength="134.1553" x="10" y="506.792">Repository Layer</text></g><!--entity Controller Layer--><g class="entity" data-entity="Controller Layer" data-source-line="6" data-uid="ent0004" id="entity_Controller Layer"><rect fill="#F1F1F1" height="46.2969" rx="2.5" ry="2.5" style="stroke:#181818;stroke-width:0.5;" width="152.6563" x="274.5" y="178.7969"/><rect fill="#F1F1F1" height="10" style="stroke:#181818;stroke-width:0.5;" width="15" x="407.1563" y="183.7969"/><rect fill="#F1F1F1" height="2" style="stroke:#181818;stroke-width:0.5;" width="4" x="405.1563" y="185.7969"/><rect fill="#F1F1F1" height="2" style="stroke:#181818;stroke-width:0.5;" width="4" x="405.1563" y="189.7969"/><text fill="#000000" font-family="sans-serif" font-size="14" lengthAdjust="spacing" textLength="112.6563" x="289.5" y="211.792">Controller Layer</text></g><!--entity ProjectService--><g class="entity" data-entity="ProjectService" data-source-line="10" data-uid="ent0006" id="entity_ProjectService"><rect fill="#F1F1F1" height="46.2969" rx="2.5" ry="2.5" style="stroke:#181818;stroke-width:0.5;" width="140.1943" x="281" y="299.7969"/><rect fill="#F1F1F1" height="10" style="stroke:#181818;stroke-width:0.5;" width="15" x="401.1943" y="304.7969"/><rect fill="#F1F1F1" height="2" style="stroke:#181818;stroke-width:0.5;" width="4" x="399.1943" y="306.7969"/><rect fill="#F1F1F1" height="2" style="stroke:#181818;stroke-width:0.5;" width="4" x="399.1943" y="310.7969"/><text fill="#000000" font-family="sans-serif" font-size="14" lengthAdjust="spacing" textLength="100.1943" x="296" y="332.792">ProjectService</text></g><!--entity DeveloperService--><g class="entity" data-entity="DeveloperService" data-source-line="11" data-uid="ent0007" id="entity_DeveloperService"><rect fill="#F1F1F1" height="46.2969" rx="2.5" ry="2.5" style="stroke:#181818;stroke-width:0.5;" width="163.7441" x="456" y="299.7969"/><rect fill="#F1F1F1" height="10" style="stroke:#181818;stroke-width:0.5;" width="15" x="599.7441" y="304.7969"/><rect fill="#F1F1F1" height="2" style="stroke:#181818;stroke-width:0.5;" width="4" x="597.7441" y="306.7969"/><rect fill="#F1F1F1" height="2" style="stroke:#181818;stroke-width:0.5;" width="4" x="597.7441" y="310.7969"/><text fill="#000000" font-family="sans-serif" font-size="14" lengthAdjust="spacing" textLength="123.7441" x="471" y="332.792">DeveloperService</text></g><!--entity TaskService--><g class="entity" data-entity="TaskService" data-source-line="12" data-uid="ent0008" id="entity_TaskService"><rect fill="#F1F1F1" height="46.2969" rx="2.5" ry="2.5" style="stroke:#181818;stroke-width:0.5;" width="124.2734" x="122" y="299.7969"/><rect fill="#F1F1F1" height="10" style="stroke:#181818;stroke-width:0.5;" width="15" x="226.2734" y="304.7969"/><rect fill="#F1F1F1" height="2" style="stroke:#181818;stroke-width:0.5;" width="4" x="224.2734" y="306.7969"/><rect fill="#F1F1F1" height="2" style="stroke:#181818;stroke-width:0.5;" width="4" x="224.2734" y="310.7969"/><text fill="#000000" font-family="sans-serif" font-size="14" lengthAdjust="spacing" textLength="84.2734" x="137" y="332.792">TaskService</text></g><!--entity AuditLogService--><g class="entity" data-entity="AuditLogService" data-source-line="13" data-uid="ent0009" id="entity_AuditLogService"><rect fill="#F1F1F1" height="46.2969" rx="2.5" ry="2.5" style="stroke:#181818;stroke-width:0.5;" width="153.709" x="122" y="405.7969"/><rect fill="#F1F1F1" height="10" style="stroke:#181818;stroke-width:0.5;" width="15" x="255.709" y="410.7969"/><rect fill="#F1F1F1" height="2" style="stroke:#181818;stroke-width:0.5;" width="4" x="253.709" y="412.7969"/><rect fill="#F1F1F1" height="2" style="stroke:#181818;stroke-width:0.5;" width="4" x="253.709" y="416.7969"/><text fill="#000000" font-family="sans-serif" font-size="14" lengthAdjust="spacing" textLength="113.709" x="137" y="438.792">AuditLogService</text></g><!--entity ProjectRepository--><g class="entity" data-entity="ProjectRepository" data-source-line="17" data-uid="ent0011" id="entity_ProjectRepository"><rect fill="#F1F1F1" height="46.2969" rx="2.5" ry="2.5" style="stroke:#181818;stroke-width:0.5;" width="163.5254" x="417" y="526.7969"/><rect fill="#F1F1F1" height="10" style="stroke:#181818;stroke-width:0.5;" width="15" x="560.5254" y="531.7969"/><rect fill="#F1F1F1" height="2" style="stroke:#181818;stroke-width:0.5;" width="4" x="558.5254" y="533.7969"/><rect fill="#F1F1F1" height="2" style="stroke:#181818;stroke-width:0.5;" width="4" x="558.5254" y="537.7969"/><text fill="#000000" font-family="sans-serif" font-size="14" lengthAdjust="spacing" textLength="123.5254" x="432" y="559.792">ProjectRepository</text></g><!--entity DeveloperRepository--><g class="entity" data-entity="DeveloperRepository" data-source-line="18" data-uid="ent0012" id="entity_DeveloperRepository"><rect fill="#F1F1F1" height="46.2969" rx="2.5" ry="2.5" style="stroke:#181818;stroke-width:0.5;" width="187.0752" x="616.5" y="526.7969"/><rect fill="#F1F1F1" height="10" style="stroke:#181818;stroke-width:0.5;" width="15" x="783.5752" y="531.7969"/><rect fill="#F1F1F1" height="2" style="stroke:#181818;stroke-width:0.5;" width="4" x="781.5752" y="533.7969"/><rect fill="#F1F1F1" height="2" style="stroke:#181818;stroke-width:0.5;" width="4" x="781.5752" y="537.7969"/><text fill="#000000" font-family="sans-serif" font-size="14" lengthAdjust="spacing" textLength="147.0752" x="631.5" y="559.792">DeveloperRepository</text></g><!--entity TaskRepository--><g class="entity" data-entity="TaskRepository" data-source-line="19" data-uid="ent0013" id="entity_TaskRepository"><rect fill="#F1F1F1" height="46.2969" rx="2.5" ry="2.5" style="stroke:#181818;stroke-width:0.5;" width="147.6045" x="234" y="526.7969"/><rect fill="#F1F1F1" height="10" style="stroke:#181818;stroke-width:0.5;" width="15" x="361.6045" y="531.7969"/><rect fill="#F1F1F1" height="2" style="stroke:#181818;stroke-width:0.5;" width="4" x="359.6045" y="533.7969"/><rect fill="#F1F1F1" height="2" style="stroke:#181818;stroke-width:0.5;" width="4" x="359.6045" y="537.7969"/><text fill="#000000" font-family="sans-serif" font-size="14" lengthAdjust="spacing" textLength="107.6045" x="249" y="559.792">TaskRepository</text></g><!--entity AuditLogRepository--><g class="entity" data-entity="AuditLogRepository" data-source-line="20" data-uid="ent0014" id="entity_AuditLogRepository"><rect fill="#F1F1F1" height="46.2969" rx="2.5" ry="2.5" style="stroke:#181818;stroke-width:0.5;" width="177.04" x="21.5" y="526.7969"/><rect fill="#F1F1F1" height="10" style="stroke:#181818;stroke-width:0.5;" width="15" x="178.54" y="531.7969"/><rect fill="#F1F1F1" height="2" style="stroke:#181818;stroke-width:0.5;" width="4" x="176.54" y="533.7969"/><rect fill="#F1F1F1" height="2" style="stroke:#181818;stroke-width:0.5;" width="4" x="176.54" y="537.7969"/><text fill="#000000" font-family="sans-serif" font-size="14" lengthAdjust="spacing" textLength="137.04" x="36.5" y="559.792">AuditLogRepository</text></g><!--entity Client--><g class="entity" data-entity="Client" data-source-line="3" data-uid="ent0002" id="entity_Client"><ellipse cx="350.8057" cy="51.2969" fill="#F1F1F1" rx="8" ry="8" style="stroke:#181818;stroke-width:0.5;"/><path d="M350.8057,59.2969 L350.8057,86.2969 M337.8057,67.2969 L363.8057,67.2969 M350.8057,86.2969 L337.8057,101.2969 M350.8057,86.2969 L363.8057,101.2969" fill="none" style="stroke:#181818;stroke-width:0.5;"/><text fill="#000000" font-family="sans-serif" font-size="14" lengthAdjust="spacing" textLength="191.6113" x="255" y="115.792">REST API Clients / Frontend</text></g><!--entity RDBMS--><g class="entity" data-entity="RDBMS" data-source-line="23" data-uid="ent0015" id="entity_RDBMS"><path d="M417,642.7969 C417,632.7969 499.2319,632.7969 499.2319,632.7969 C499.2319,632.7969 581.4639,632.7969 581.4639,642.7969 L581.4639,684.3906 C581.4639,694.3906 499.2319,694.3906 499.2319,694.3906 C499.2319,694.3906 417,694.3906 417,684.3906 L417,642.7969" fill="#F1F1F1" style="stroke:#181818;stroke-width:0.5;"/><path d="M417,642.7969 C417,652.7969 499.2319,652.7969 499.2319,652.7969 C499.2319,652.7969 581.4639,652.7969 581.4639,642.7969" fill="none" style="stroke:#181818;stroke-width:0.5;"/><text fill="#000000" font-family="sans-serif" font-size="14" lengthAdjust="spacing" textLength="51.0781" x="427" y="669.792">RDBMS</text><text fill="#000000" font-family="sans-serif" font-size="14" lengthAdjust="spacing" textLength="144.4639" x="427" y="686.0889">(MySQL/PostgreSQL)</text></g><!--entity MongoDB--><g class="entity" data-entity="MongoDB" data-source-line="24" data-uid="ent0016" id="entity_MongoDB"><path d="M66.5,651.2969 C66.5,641.2969 110.1772,641.2969 110.1772,641.2969 C110.1772,641.2969 153.8545,641.2969 153.8545,651.2969 L153.8545,676.5938 C153.8545,686.5938 110.1772,686.5938 110.1772,686.5938 C110.1772,686.5938 66.5,686.5938 66.5,676.5938 L66.5,651.2969" fill="#F1F1F1" style="stroke:#181818;stroke-width:0.5;"/><path d="M66.5,651.2969 C66.5,661.2969 110.1772,661.2969 110.1772,661.2969 C110.1772,661.2969 153.8545,661.2969 153.8545,651.2969" fill="none" style="stroke:#181818;stroke-width:0.5;"/><text fill="#000000" font-family="sans-serif" font-size="14" lengthAdjust="spacing" textLength="67.3545" x="76.5" y="678.292">MongoDB</text></g><!--link Client to Controller Layer--><g class="link" data-entity-1="Client" data-entity-2="Controller Layer" data-source-line="27" data-uid="lnk17" id="link_Client_Controller Layer"><path d="M351,118.7969 C351,138.4469 351,155.9369 351,172.7269" fill="none" id="Client-to-Controller Layer" style="stroke:#181818;stroke-width:1;"/><polygon fill="#181818" points="351,178.7269,355,169.7269,351,173.7269,347,169.7269,351,178.7269" style="stroke:#181818;stroke-width:1;"/></g><!--link Controller Layer to ProjectService--><g class="link" data-entity-1="Controller Layer" data-entity-2="ProjectService" data-source-line="28" data-uid="lnk18" id="link_Controller Layer_ProjectService"><path d="M351,224.8969 C351,246.1369 351,272.0769 351,293.4069" fill="none" id="Controller Layer-to-ProjectService" style="stroke:#181818;stroke-width:1;"/><polygon fill="#181818" points="351,299.4069,355,290.4069,351,294.4069,347,290.4069,351,299.4069" style="stroke:#181818;stroke-width:1;"/></g><!--link Controller Layer to DeveloperService--><g class="link" data-entity-1="Controller Layer" data-entity-2="DeveloperService" data-source-line="29" data-uid="lnk19" id="link_Controller Layer_DeveloperService"><path d="M387.55,224.8769 C403.43,234.5669 422.2,246.1369 439,256.7969 C461.04,270.7969 480.5789,283.582 499.7089,296.262" fill="none" id="Controller Layer-to-DeveloperService" style="stroke:#181818;stroke-width:1;"/><polygon fill="#181818" points="504.71,299.5769,499.4182,291.2704,500.5424,296.8144,494.9984,297.9386,504.71,299.5769" style="stroke:#181818;stroke-width:1;"/></g><!--link Controller Layer to TaskService--><g class="link" data-entity-1="Controller Layer" data-entity-2="TaskService" data-source-line="30" data-uid="lnk20" id="link_Controller Layer_TaskService"><path d="M313.07,224.9069 C297.57,234.3069 279.64,245.6569 264,256.7969 C245.2,270.1869 229.6153,282.7171 214.2353,295.6971" fill="none" id="Controller Layer-to-TaskService" style="stroke:#181818;stroke-width:1;"/><polygon fill="#181818" points="209.65,299.5669,219.1078,296.8191,213.4711,296.3421,213.9481,290.7054,209.65,299.5669" style="stroke:#181818;stroke-width:1;"/></g><!--link ProjectService to ProjectRepository--><g class="link" data-entity-1="ProjectService" data-entity-2="ProjectRepository" data-source-line="32" data-uid="lnk21" id="link_ProjectService_ProjectRepository"><path d="M365.73,346.1969 C394.1,389.3169 452.7125,478.4242 481.0325,521.4742" fill="none" id="ProjectService-to-ProjectRepository" style="stroke:#181818;stroke-width:1;"/><polygon fill="#181818" points="484.33,526.4869,482.7255,516.7696,481.5821,522.3097,476.042,521.1663,484.33,526.4869" style="stroke:#181818;stroke-width:1;"/></g><!--link DeveloperService to DeveloperRepository--><g class="link" data-entity-1="DeveloperService" data-entity-2="DeveloperRepository" data-source-line="33" data-uid="lnk22" id="link_DeveloperService_DeveloperRepository"><path d="M555.12,346.1969 C588.09,389.3169 656.3853,478.6707 689.3053,521.7207" fill="none" id="DeveloperService-to-DeveloperRepository" style="stroke:#181818;stroke-width:1;"/><polygon fill="#181818" points="692.95,526.4869,690.6605,516.9078,689.9128,522.5151,684.3056,521.7674,692.95,526.4869" style="stroke:#181818;stroke-width:1;"/></g><!--link TaskService to TaskRepository--><g class="link" data-entity-1="TaskService" data-entity-2="TaskRepository" data-source-line="34" data-uid="lnk23" id="link_TaskService_TaskRepository"><path d="M229.44,345.8669 C252.79,359.7069 279.36,379.8669 294,405.7969 C315.52,443.9169 314.717,491.0077 311.707,520.6077" fill="none" id="TaskService-to-TaskRepository" style="stroke:#181818;stroke-width:1;"/><polygon fill="#181818" points="311.1,526.5769,315.99,518.0277,311.6058,521.6025,308.031,517.2184,311.1,526.5769" style="stroke:#181818;stroke-width:1;"/></g><!--link ProjectService to AuditLogService--><g class="link" data-entity-1="ProjectService" data-entity-2="AuditLogService" data-source-line="36" data-uid="lnk24" id="link_ProjectService_AuditLogService"><path d="M318.76,345.8569 C292.97,363.4969 261.9217,384.7486 236.1417,402.3886" fill="none" id="ProjectService-to-AuditLogService" style="stroke:#181818;stroke-width:1;"/><polygon fill="#181818" points="231.19,405.7769,240.8765,403.9957,235.3165,402.9533,236.3588,397.3933,231.19,405.7769" style="stroke:#181818;stroke-width:1;"/></g><!--link DeveloperService to AuditLogService--><g class="link" data-entity-1="DeveloperService" data-entity-2="AuditLogService" data-source-line="37" data-uid="lnk25" id="link_DeveloperService_AuditLogService"><path d="M466.11,345.8569 C408.58,363.4969 334.0261,386.3771 276.5261,404.0171" fill="none" id="DeveloperService-to-AuditLogService" style="stroke:#181818;stroke-width:1;"/><polygon fill="#181818" points="270.79,405.7769,280.5674,406.9613,275.5701,404.3104,278.221,399.3132,270.79,405.7769" style="stroke:#181818;stroke-width:1;"/></g><!--link TaskService to AuditLogService--><g class="link" data-entity-1="TaskService" data-entity-2="AuditLogService" data-source-line="38" data-uid="lnk26" id="link_TaskService_AuditLogService"><path d="M187.18,345.8569 C189.73,363.4969 192.4249,382.1981 194.9649,399.8381" fill="none" id="TaskService-to-AuditLogService" style="stroke:#181818;stroke-width:1;"/><polygon fill="#181818" points="195.82,405.7769,198.4965,396.2987,195.1074,400.8279,190.5781,397.4388,195.82,405.7769" style="stroke:#181818;stroke-width:1;"/></g><!--link AuditLogService to AuditLogRepository--><g class="link" data-entity-1="AuditLogService" data-entity-2="AuditLogRepository" data-source-line="40" data-uid="lnk27" id="link_AuditLogService_AuditLogRepository"><path d="M182.47,451.8969 C166.58,473.1369 146.2931,500.2717 130.3431,521.6017" fill="none" id="AuditLogService-to-AuditLogRepository" style="stroke:#181818;stroke-width:1;"/><polygon fill="#181818" points="126.75,526.4069,135.3431,521.5946,129.7443,522.4026,128.9363,516.8037,126.75,526.4069" style="stroke:#181818;stroke-width:1;"/></g><!--link ProjectRepository to RDBMS--><g class="link" data-entity-1="ProjectRepository" data-entity-2="RDBMS" data-source-line="42" data-uid="lnk28" id="link_ProjectRepository_RDBMS"><path d="M499,572.9269 C499,590.0069 499,607.8369 499,626.6569" fill="none" id="ProjectRepository-to-RDBMS" style="stroke:#181818;stroke-width:1;"/><polygon fill="#181818" points="499,632.6569,503,623.6569,499,627.6569,495,623.6569,499,632.6569" style="stroke:#181818;stroke-width:1;"/></g><!--link DeveloperRepository to RDBMS--><g class="link" data-entity-1="DeveloperRepository" data-entity-2="RDBMS" data-source-line="43" data-uid="lnk29" id="link_DeveloperRepository_RDBMS"><path d="M668.31,572.9269 C636.13,590.0069 596.5501,611.0247 561.0801,629.8447" fill="none" id="DeveloperRepository-to-RDBMS" style="stroke:#181818;stroke-width:1;"/><polygon fill="#181818" points="555.78,632.6569,565.605,631.972,560.1968,630.3134,561.8554,624.9051,555.78,632.6569" style="stroke:#181818;stroke-width:1;"/></g><!--link TaskRepository to RDBMS--><g class="link" data-entity-1="TaskRepository" data-entity-2="RDBMS" data-source-line="44" data-uid="lnk30" id="link_TaskRepository_RDBMS"><path d="M345.74,572.9269 C374.87,590.0069 410.324,610.8022 442.424,629.6222" fill="none" id="TaskRepository-to-RDBMS" style="stroke:#181818;stroke-width:1;"/><polygon fill="#181818" points="447.6,632.6569,441.8591,624.6542,443.2867,630.128,437.8129,631.5556,447.6,632.6569" style="stroke:#181818;stroke-width:1;"/></g><!--link AuditLogRepository to MongoDB--><g class="link" data-entity-1="AuditLogRepository" data-entity-2="MongoDB" data-source-line="45" data-uid="lnk31" id="link_AuditLogRepository_MongoDB"><path d="M110,572.9269 C110,592.6869 110,615.4669 110,635.0969" fill="none" id="AuditLogRepository-to-MongoDB" style="stroke:#181818;stroke-width:1;"/><polygon fill="#181818" points="110,641.0969,114,632.0969,110,636.0969,106,632.0969,110,641.0969" style="stroke:#181818;stroke-width:1;"/></g><!--SRC=[TPBDQeGm58NtUOgBcxOBcJSep6WB1GKx2bsqiyZeHT9nSYL91wJqtPjHsub6NOLpJlpkJumm3KAcw1DB0uNYvGaLX13HkIM9qa0iUAtucJ5U6b8Gx9_o0hRP2qIDiBw63JmhaWPb5G3NeynOQt_5QuJW3O-Gy0vL0DyCxFSUsRYYfh6atZYm7oUVexg84cTtnX97yp28CLwmeHRLL2wuFasLxLSbJ4Brl-e2zzYI5hQvRfbvy-TOpxcIFV4FxXgMNt73ZrnV2uXtQVuXxzCkVqqs6MbJAxJ7XtwWlUkaKv8rnRlU6y-CtTcDIMcB5IGr6tO0OVYuD6nV6fBp4Q_b_Acl9IUBO7F0XEeEnoVCm9Em2xbXtSWAsNiKQrm_w3Ez3FEaQN2nG4ViqyFk5njt_Ld3hhM0w-tnvVm2]--></g></svg>